<svg id="svg" xmlns="http://www.w3.org/2000/svg" xmlns:xlink="http://www.w3.org/1999/xlink" width="400" height="231.2" viewBox="0, 0, 400,231.2"><g id="svgg"><path class="bg-svg" id="path0" d="M10.573 2.590 C -2.183 23.799,-1.951 22.109,6.022 35.830 L 12.043 46.193 6.022 56.555 C -1.126 68.856,-1.195 69.485,3.665 78.000 C 5.674 81.520,8.358 86.222,9.630 88.448 L 11.943 92.496 5.979 102.848 C -1.492 115.813,-1.492 115.386,6.018 128.327 L 12.011 138.653 6.006 149.050 C -1.508 162.058,-1.508 161.613,5.995 174.547 L 11.989 184.881 5.995 195.314 C -1.478 208.319,-1.477 207.894,5.925 220.616 L 11.851 230.800 40.011 230.800 L 68.172 230.800 73.840 221.000 C 76.958 215.610,79.730 211.200,80.000 211.200 C 80.270 211.200,83.042 215.610,86.160 221.000 L 91.828 230.800 120.000 230.800 L 148.172 230.800 153.840 221.000 C 156.958 215.610,159.730 211.200,160.000 211.200 C 160.270 211.200,163.042 215.610,166.160 221.000 L 171.828 230.800 200.000 230.800 L 228.172 230.800 233.840 221.000 C 236.958 215.610,239.730 211.200,240.000 211.200 C 240.270 211.200,243.042 215.610,246.160 221.000 L 251.828 230.800 280.000 230.800 L 308.172 230.800 313.840 221.000 C 316.958 215.610,319.730 211.200,320.000 211.200 C 320.270 211.200,323.042 215.610,326.160 221.000 L 331.828 230.800 359.989 230.800 L 388.149 230.800 394.075 220.616 C 401.477 207.894,401.478 208.319,394.005 195.314 L 388.011 184.881 394.005 174.547 C 401.508 161.613,401.508 162.058,393.994 149.050 L 387.989 138.653 393.982 128.327 C 401.422 115.507,401.418 115.869,394.267 103.367 C 387.363 91.298,387.362 93.677,394.274 81.569 C 401.416 69.058,401.421 69.437,393.975 56.601 L 387.950 46.214 393.975 35.783 C 401.516 22.729,401.514 23.091,394.074 10.400 L 388.212 0.400 360.019 0.400 L 331.826 0.400 326.127 10.200 C 322.993 15.590,320.236 20.000,320.000 20.000 C 319.764 20.000,317.007 15.590,313.873 10.200 L 308.174 0.400 280.000 0.400 L 251.826 0.400 246.127 10.200 C 242.993 15.590,240.237 20.000,240.004 20.000 C 239.770 20.000,237.026 15.590,233.905 10.200 L 228.231 0.400 200.029 0.400 L 171.826 0.400 166.127 10.200 C 162.993 15.590,160.237 20.000,160.004 20.000 C 159.770 20.000,157.026 15.590,153.905 10.200 L 148.231 0.400 120.029 0.400 L 91.826 0.400 86.127 10.200 C 82.993 15.590,80.237 20.000,80.004 20.000 C 79.770 20.000,77.026 15.590,73.906 10.200 L 68.232 0.400 40.188 0.190 L 12.143 -0.020 10.573 2.590 M37.600 1.282 C 37.600 1.547,35.030 6.227,31.890 11.682 L 26.180 21.600 14.243 21.600 C 7.677 21.600,2.458 21.330,2.644 21.000 C 7.965 11.571,13.196 2.573,13.806 1.800 C 14.621 0.768,37.600 0.268,37.600 1.282 M117.600 1.282 C 117.600 1.547,115.030 6.227,111.890 11.682 L 106.180 21.600 94.243 21.600 C 87.677 21.600,82.458 21.330,82.644 21.000 C 87.965 11.571,93.196 2.573,93.806 1.800 C 94.621 0.768,117.600 0.268,117.600 1.282 M197.600 1.282 C 197.600 1.547,195.030 6.227,191.890 11.682 L 186.180 21.600 174.243 21.600 C 167.677 21.600,162.458 21.330,162.644 21.000 C 167.965 11.571,173.196 2.573,173.806 1.800 C 174.621 0.768,197.600 0.268,197.600 1.282 M277.600 1.282 C 277.600 1.547,275.030 6.227,271.890 11.682 L 266.180 21.600 254.243 21.600 C 247.677 21.600,242.458 21.330,242.644 21.000 C 247.965 11.571,253.196 2.573,253.806 1.800 C 254.621 0.768,277.600 0.268,277.600 1.282 M357.600 1.282 C 357.600 1.547,355.030 6.227,351.890 11.682 L 346.180 21.600 334.243 21.600 C 327.677 21.600,322.458 21.330,322.644 21.000 C 327.965 11.571,333.196 2.573,333.806 1.800 C 334.621 0.768,357.600 0.268,357.600 1.282 M71.637 11.000 C 74.591 16.170,77.162 20.670,77.351 21.000 C 77.540 21.330,72.322 21.600,65.755 21.600 L 53.816 21.600 50.003 15.000 C 47.905 11.370,45.303 6.870,44.219 5.000 L 42.248 1.600 54.257 1.600 L 66.266 1.600 71.637 11.000 M151.637 11.000 C 154.591 16.170,157.162 20.670,157.351 21.000 C 157.540 21.330,152.322 21.600,145.755 21.600 L 133.816 21.600 130.003 15.000 C 127.905 11.370,125.303 6.870,124.219 5.000 L 122.248 1.600 134.257 1.600 L 146.266 1.600 151.637 11.000 M231.637 11.000 C 234.591 16.170,237.162 20.670,237.351 21.000 C 237.540 21.330,232.322 21.600,225.755 21.600 L 213.816 21.600 210.003 15.000 C 207.905 11.370,205.303 6.870,204.219 5.000 L 202.248 1.600 214.257 1.600 L 226.266 1.600 231.637 11.000 M311.649 11.000 C 314.623 16.170,317.200 20.670,317.376 21.000 C 317.551 21.330,312.322 21.600,305.755 21.600 L 293.816 21.600 290.003 15.000 C 287.905 11.370,285.303 6.870,284.219 5.000 L 282.248 1.600 294.244 1.600 L 306.241 1.600 311.649 11.000 M391.649 11.000 C 394.623 16.170,397.200 20.670,397.376 21.000 C 397.551 21.330,392.322 21.600,385.755 21.600 L 373.816 21.600 370.003 15.000 C 367.905 11.370,365.303 6.870,364.219 5.000 L 362.248 1.600 374.244 1.600 L 386.241 1.600 391.649 11.000 M46.288 13.168 L 51.969 23.137 46.184 33.162 C 43.003 38.676,40.206 43.190,39.969 43.194 C 39.731 43.197,36.952 38.679,33.793 33.153 L 28.049 23.106 33.721 13.153 C 36.841 7.679,39.666 3.200,40.000 3.200 C 40.334 3.200,43.163 7.686,46.288 13.168 M126.279 13.153 L 131.951 23.106 126.207 33.153 C 123.048 38.679,120.254 43.200,120.000 43.200 C 119.746 43.200,116.942 38.661,113.771 33.114 L 108.005 23.029 113.712 13.114 C 116.852 7.661,119.687 3.200,120.013 3.200 C 120.340 3.200,123.159 7.679,126.279 13.153 M206.288 13.168 L 211.969 23.137 206.184 33.162 C 203.003 38.676,200.206 43.190,199.969 43.194 C 199.731 43.197,196.942 38.661,193.771 33.114 L 188.005 23.029 193.712 13.114 C 196.852 7.661,199.687 3.200,200.013 3.200 C 200.340 3.200,203.163 7.686,206.288 13.168 M286.288 13.168 L 291.969 23.137 286.184 33.162 C 283.003 38.676,280.206 43.190,279.969 43.194 C 279.731 43.197,276.942 38.661,273.771 33.114 L 268.005 23.029 273.712 13.114 C 276.852 7.661,279.687 3.200,280.013 3.200 C 280.340 3.200,283.163 7.686,286.288 13.168 M366.288 13.168 L 371.969 23.137 366.184 33.162 C 363.003 38.676,360.206 43.190,359.969 43.194 C 359.731 43.197,356.952 38.679,353.793 33.153 L 348.049 23.106 353.721 13.153 C 356.841 7.679,359.666 3.200,360.000 3.200 C 360.334 3.200,363.163 7.686,366.288 13.168 M30.211 31.600 C 32.551 35.560,35.178 40.150,36.049 41.800 L 37.633 44.800 25.770 44.800 L 13.907 44.800 8.153 34.847 C 4.989 29.373,2.400 24.683,2.400 24.425 C 2.400 24.168,7.700 24.057,14.178 24.179 L 25.956 24.400 30.211 31.600 M77.600 24.447 C 77.600 24.693,75.011 29.373,71.847 34.847 L 66.093 44.800 54.219 44.800 L 42.344 44.800 43.281 43.000 C 44.686 40.301,50.411 30.413,52.545 27.000 L 54.420 24.000 66.010 24.000 C 72.385 24.000,77.600 24.201,77.600 24.447 M108.792 29.200 C 110.401 31.840,113.072 36.430,114.727 39.400 L 117.738 44.800 105.822 44.800 L 93.907 44.800 88.153 34.847 C 84.989 29.373,82.400 24.683,82.400 24.425 C 82.400 24.168,87.680 24.057,94.134 24.179 L 105.868 24.400 108.792 29.200 M157.600 24.447 C 157.600 24.693,155.011 29.373,151.847 34.847 L 146.093 44.800 134.219 44.800 L 122.344 44.800 123.281 43.000 C 124.686 40.301,130.411 30.413,132.545 27.000 L 134.420 24.000 146.010 24.000 C 152.385 24.000,157.600 24.201,157.600 24.447 M188.792 29.200 C 190.401 31.840,193.072 36.430,194.727 39.400 L 197.738 44.800 185.822 44.800 L 173.907 44.800 168.153 34.847 C 164.989 29.373,162.400 24.683,162.400 24.425 C 162.400 24.168,167.680 24.057,174.134 24.179 L 185.868 24.400 188.792 29.200 M237.600 24.447 C 237.600 24.693,235.011 29.373,231.847 34.847 L 226.093 44.800 214.219 44.800 L 202.344 44.800 203.281 43.000 C 204.686 40.301,210.411 30.413,212.545 27.000 L 214.420 24.000 226.010 24.000 C 232.385 24.000,237.600 24.201,237.600 24.447 M268.792 29.200 C 270.401 31.840,273.072 36.430,274.727 39.400 L 277.738 44.800 265.822 44.800 L 253.907 44.800 248.153 34.847 C 244.989 29.373,242.400 24.683,242.400 24.425 C 242.400 24.168,247.680 24.057,254.134 24.179 L 265.868 24.400 268.792 29.200 M317.600 24.447 C 317.600 24.693,315.011 29.373,311.847 34.847 L 306.093 44.800 294.219 44.800 L 282.344 44.800 283.286 43.000 C 284.955 39.811,293.018 26.033,293.820 25.000 C 294.603 23.991,317.600 23.456,317.600 24.447 M348.792 29.200 C 350.401 31.840,353.072 36.430,354.727 39.400 L 357.738 44.800 345.822 44.800 L 333.907 44.800 328.153 34.847 C 324.989 29.373,322.400 24.683,322.400 24.425 C 322.400 24.168,327.680 24.057,334.134 24.179 L 345.868 24.400 348.792 29.200 M397.600 24.447 C 397.600 24.693,395.011 29.373,391.847 34.847 L 386.093 44.800 374.219 44.800 L 362.344 44.800 363.286 43.000 C 364.955 39.811,373.018 26.033,373.820 25.000 C 374.603 23.991,397.600 23.456,397.600 24.447 M86.315 36.307 L 92.025 46.213 86.213 56.292 C 83.016 61.835,80.220 66.374,80.000 66.379 C 79.780 66.383,76.984 61.853,73.787 56.312 L 67.973 46.237 73.647 36.318 C 76.767 30.863,79.609 26.400,79.962 26.400 C 80.315 26.400,83.174 30.858,86.315 36.307 M166.315 36.307 L 172.025 46.213 166.213 56.292 C 163.016 61.835,160.220 66.374,160.000 66.379 C 159.780 66.383,156.983 61.851,153.784 56.307 L 147.967 46.227 153.682 36.313 C 156.824 30.861,159.668 26.400,160.000 26.400 C 160.332 26.400,163.174 30.858,166.315 36.307 M246.315 36.307 L 252.025 46.213 246.213 56.292 C 243.016 61.835,240.220 66.374,240.000 66.379 C 239.780 66.383,236.983 61.851,233.784 56.307 L 227.967 46.227 233.682 36.313 C 236.824 30.861,239.668 26.400,240.000 26.400 C 240.332 26.400,243.174 30.858,246.315 36.307 M326.315 36.307 L 332.025 46.213 326.213 56.292 C 323.016 61.835,320.220 66.374,320.000 66.379 C 319.780 66.383,316.984 61.853,313.787 56.312 L 307.973 46.237 313.647 36.318 C 316.767 30.863,319.609 26.400,319.962 26.400 C 320.315 26.400,323.174 30.858,326.315 36.307 M37.600 47.647 C 37.600 47.893,35.011 52.573,31.847 58.047 L 26.093 68.000 14.170 68.000 L 2.247 68.000 4.833 63.400 C 6.256 60.870,8.900 56.194,10.710 53.008 L 14.000 47.217 25.800 47.208 C 32.290 47.204,37.600 47.401,37.600 47.647 M69.290 53.008 C 71.100 56.194,73.744 60.870,75.167 63.400 L 77.753 68.000 65.861 68.000 L 53.969 68.000 48.184 58.045 C 45.003 52.570,42.400 47.890,42.400 47.645 C 42.400 47.400,47.710 47.204,54.200 47.208 L 66.000 47.217 69.290 53.008 M117.600 47.647 C 117.600 47.893,115.011 52.573,111.847 58.047 L 106.093 68.000 94.170 68.000 L 82.247 68.000 84.833 63.400 C 86.256 60.870,88.900 56.194,90.710 53.008 L 94.000 47.217 105.800 47.208 C 112.290 47.204,117.600 47.401,117.600 47.647 M149.290 53.008 C 151.100 56.194,153.744 60.870,155.167 63.400 L 157.753 68.000 145.861 68.000 L 133.969 68.000 128.184 58.045 C 125.003 52.570,122.400 47.890,122.400 47.645 C 122.400 47.400,127.710 47.204,134.200 47.208 L 146.000 47.217 149.290 53.008 M197.600 47.600 C 197.600 47.820,194.995 52.500,191.810 58.000 L 186.021 68.000 174.134 68.000 L 162.247 68.000 164.833 63.400 C 166.256 60.870,168.900 56.194,170.710 53.008 L 174.000 47.217 185.800 47.208 C 192.290 47.204,197.600 47.380,197.600 47.600 M229.290 53.008 C 231.100 56.194,233.744 60.870,235.167 63.400 L 237.753 68.000 225.861 68.000 L 213.969 68.000 208.184 58.045 C 205.003 52.570,202.400 47.890,202.400 47.645 C 202.400 47.400,207.710 47.204,214.200 47.208 L 226.000 47.217 229.290 53.008 M277.600 47.645 C 277.600 47.890,274.997 52.570,271.816 58.045 L 266.031 68.000 254.139 68.000 L 242.247 68.000 244.833 63.400 C 246.256 60.870,248.900 56.194,250.710 53.008 L 254.000 47.217 265.800 47.208 C 272.290 47.204,277.600 47.400,277.600 47.645 M309.290 53.008 C 311.100 56.194,313.744 60.870,315.167 63.400 L 317.753 68.000 305.861 68.000 L 293.969 68.000 288.184 58.045 C 285.003 52.570,282.400 47.890,282.400 47.645 C 282.400 47.400,287.710 47.204,294.200 47.208 L 306.000 47.217 309.290 53.008 M357.600 47.645 C 357.600 47.890,354.997 52.570,351.816 58.045 L 346.031 68.000 334.139 68.000 L 322.247 68.000 324.833 63.400 C 326.256 60.870,328.900 56.194,330.710 53.008 L 334.000 47.217 345.800 47.208 C 352.290 47.204,357.600 47.400,357.600 47.645 M389.290 53.008 C 391.100 56.194,393.744 60.870,395.167 63.400 L 397.753 68.000 385.861 68.000 L 373.969 68.000 368.184 58.045 C 365.003 52.570,362.400 47.890,362.400 47.645 C 362.400 47.400,367.710 47.204,374.200 47.208 L 386.000 47.217 389.290 53.008 M46.071 59.009 C 49.037 64.174,51.465 68.788,51.465 69.262 C 51.467 70.291,40.576 89.590,40.000 89.579 C 39.780 89.575,36.996 85.031,33.814 79.480 L 28.027 69.388 33.814 59.178 C 36.996 53.563,39.842 49.114,40.138 49.293 C 40.435 49.472,43.104 53.844,46.071 59.009 M126.071 59.009 C 129.037 64.174,131.465 68.788,131.465 69.262 C 131.467 70.291,120.576 89.590,120.000 89.579 C 119.780 89.575,116.996 85.031,113.814 79.480 L 108.027 69.388 113.814 59.178 C 116.996 53.563,119.842 49.114,120.138 49.293 C 120.435 49.472,123.104 53.844,126.071 59.009 M366.071 59.009 C 369.037 64.174,371.465 68.788,371.465 69.262 C 371.467 70.291,360.576 89.590,360.000 89.578 C 359.780 89.574,356.989 85.042,353.797 79.508 L 347.994 69.447 353.797 59.207 C 356.989 53.576,359.842 49.114,360.138 49.293 C 360.435 49.472,363.104 53.844,366.071 59.009 M206.065 59.000 C 209.035 64.170,211.465 68.788,211.465 69.262 C 211.467 70.291,200.576 89.590,200.000 89.579 C 199.780 89.575,196.993 85.025,193.807 79.469 L 188.014 69.366 193.667 59.483 C 196.776 54.047,199.623 49.600,199.993 49.600 C 200.363 49.600,203.096 53.830,206.065 59.000 M286.065 59.000 C 289.035 64.170,291.465 68.788,291.465 69.262 C 291.467 70.291,280.576 89.590,280.000 89.579 C 279.780 89.575,276.993 85.025,273.807 79.469 L 268.014 69.366 273.667 59.483 C 276.776 54.047,279.623 49.600,279.993 49.600 C 280.363 49.600,283.096 53.830,286.065 59.000 M31.600 80.188 C 34.680 85.564,37.320 90.241,37.467 90.581 C 37.613 90.922,32.389 91.200,25.856 91.200 L 13.979 91.200 8.190 81.200 C 5.005 75.700,2.400 71.020,2.400 70.800 C 2.400 70.580,7.710 70.403,14.200 70.407 L 26.000 70.414 31.600 80.188 M77.600 70.800 C 77.600 71.020,74.995 75.700,71.810 81.200 L 66.021 91.200 54.144 91.200 C 47.611 91.200,42.387 90.900,42.533 90.533 C 42.680 90.166,45.320 85.490,48.400 80.142 L 54.000 70.418 65.800 70.409 C 72.290 70.404,77.600 70.580,77.600 70.800 M111.600 80.188 C 114.680 85.564,117.320 90.241,117.467 90.581 C 117.613 90.922,112.371 91.200,105.817 91.200 L 93.901 91.200 88.351 81.456 C 85.298 76.097,82.680 71.417,82.533 71.056 C 82.387 70.695,87.607 70.403,94.133 70.407 L 106.000 70.414 111.600 80.188 M157.600 70.800 C 157.600 71.020,154.995 75.700,151.810 81.200 L 146.021 91.200 134.144 91.200 C 127.611 91.200,122.387 90.900,122.533 90.533 C 122.680 90.166,125.320 85.490,128.400 80.142 L 134.000 70.418 145.800 70.409 C 152.290 70.404,157.600 70.580,157.600 70.800 M191.600 80.188 C 194.680 85.564,197.320 90.241,197.467 90.581 C 197.613 90.922,192.370 91.200,185.815 91.200 L 173.897 91.200 168.348 81.494 C 165.297 76.156,162.680 71.476,162.533 71.094 C 162.387 70.712,167.607 70.403,174.133 70.407 L 186.000 70.414 191.600 80.188 M237.467 71.094 C 237.320 71.476,234.703 76.156,231.652 81.494 L 226.103 91.200 214.185 91.200 C 207.630 91.200,202.387 90.900,202.533 90.533 C 202.680 90.166,205.320 85.490,208.400 80.142 L 214.000 70.418 225.867 70.409 C 232.393 70.404,237.613 70.712,237.467 71.094 M271.600 80.188 C 274.680 85.564,277.320 90.241,277.467 90.581 C 277.613 90.922,272.386 91.200,265.851 91.200 L 253.969 91.200 248.184 81.245 C 245.003 75.770,242.400 71.090,242.400 70.845 C 242.400 70.600,247.710 70.403,254.200 70.407 L 266.000 70.414 271.600 80.188 M317.467 71.056 C 317.320 71.417,314.702 76.097,311.649 81.456 L 306.099 91.200 294.183 91.200 C 287.629 91.200,282.387 90.900,282.533 90.533 C 282.680 90.166,285.320 85.490,288.400 80.142 L 294.000 70.418 305.867 70.409 C 312.393 70.404,317.613 70.695,317.467 71.056 M351.600 80.188 C 354.680 85.564,357.320 90.241,357.467 90.581 C 357.613 90.922,352.389 91.200,345.856 91.200 L 333.979 91.200 328.190 81.200 C 325.005 75.700,322.400 71.020,322.400 70.800 C 322.400 70.580,327.710 70.403,334.200 70.407 L 346.000 70.414 351.600 80.188 M397.600 70.800 C 397.600 71.020,394.995 75.700,391.810 81.200 L 386.021 91.200 374.144 91.200 C 367.611 91.200,362.387 90.900,362.533 90.533 C 362.680 90.166,365.320 85.490,368.400 80.142 L 374.000 70.418 385.800 70.409 C 392.290 70.404,397.600 70.580,397.600 70.800 M86.000 82.070 C 89.080 87.588,91.483 92.530,91.341 93.051 C 90.935 94.535,80.448 112.756,80.000 112.756 C 79.396 112.756,68.533 93.502,68.533 92.431 C 68.533 91.364,79.392 72.059,80.000 72.046 C 80.220 72.041,82.920 76.552,86.000 82.070 M165.933 81.777 C 168.977 87.125,171.467 91.919,171.467 92.431 C 171.467 93.502,160.604 112.756,160.000 112.756 C 159.396 112.756,148.533 93.502,148.533 92.431 C 148.533 91.359,159.397 72.055,160.000 72.055 C 160.220 72.055,162.890 76.430,165.933 81.777 M245.933 81.777 C 248.977 87.125,251.467 91.919,251.467 92.431 C 251.467 93.493,240.612 112.748,240.000 112.771 C 239.411 112.794,228.533 93.481,228.533 92.412 C 228.533 91.353,239.403 72.055,240.000 72.055 C 240.220 72.055,242.890 76.430,245.933 81.777 M325.933 81.777 C 328.977 87.125,331.467 91.919,331.467 92.431 C 331.467 93.493,320.612 112.748,320.000 112.771 C 319.411 112.794,308.533 93.481,308.533 92.412 C 308.533 91.353,319.403 72.055,320.000 72.055 C 320.220 72.055,322.890 76.430,325.933 81.777 M37.467 94.280 C 37.320 94.653,34.680 99.333,31.600 104.679 L 26.000 114.398 14.133 114.399 C 7.607 114.400,2.387 114.094,2.533 113.720 C 2.680 113.347,5.320 108.667,8.400 103.321 L 14.000 93.602 25.867 93.601 C 32.393 93.600,37.613 93.906,37.467 94.280 M71.600 103.342 C 74.680 108.690,77.320 113.366,77.467 113.733 C 77.613 114.100,72.393 114.400,65.867 114.399 L 54.000 114.398 48.400 104.679 C 45.320 99.333,42.680 94.653,42.533 94.280 C 42.387 93.906,47.607 93.604,54.133 93.609 L 66.000 93.618 71.600 103.342 M117.467 94.280 C 117.320 94.653,114.680 99.333,111.600 104.679 L 106.000 114.398 94.133 114.399 C 87.607 114.400,82.387 114.094,82.533 113.720 C 82.680 113.347,85.320 108.667,88.400 103.321 L 94.000 93.602 105.867 93.601 C 112.393 93.600,117.613 93.906,117.467 94.280 M151.600 103.321 C 154.680 108.667,157.320 113.347,157.467 113.720 C 157.613 114.094,152.393 114.400,145.867 114.399 L 134.000 114.398 128.400 104.679 C 125.320 99.333,122.680 94.653,122.533 94.280 C 122.387 93.906,127.607 93.600,134.133 93.601 L 146.000 93.602 151.600 103.321 M197.467 94.280 C 197.320 94.653,194.680 99.333,191.600 104.679 L 186.000 114.398 174.133 114.399 C 167.607 114.400,162.387 114.094,162.533 113.720 C 162.680 113.347,165.320 108.667,168.400 103.321 L 174.000 93.602 185.867 93.601 C 192.393 93.600,197.613 93.906,197.467 94.280 M231.600 103.321 C 234.680 108.667,237.320 113.347,237.467 113.720 C 237.613 114.094,232.393 114.400,225.867 114.399 L 214.000 114.398 208.400 104.679 C 205.320 99.333,202.680 94.653,202.533 94.280 C 202.387 93.906,207.607 93.600,214.133 93.601 L 226.000 93.602 231.600 103.321 M277.467 94.280 C 277.320 94.653,274.680 99.333,271.600 104.679 L 266.000 114.398 254.133 114.399 C 247.607 114.400,242.387 114.094,242.533 113.720 C 242.680 113.347,245.320 108.667,248.400 103.321 L 254.000 93.602 265.867 93.601 C 272.393 93.600,277.613 93.906,277.467 94.280 M311.600 103.321 C 314.680 108.667,317.320 113.347,317.467 113.720 C 317.613 114.094,312.393 114.400,305.867 114.399 L 294.000 114.398 288.400 104.679 C 285.320 99.333,282.680 94.653,282.533 94.280 C 282.387 93.906,287.607 93.600,294.133 93.601 L 306.000 93.602 311.600 103.321 M357.467 94.280 C 357.320 94.653,354.680 99.333,351.600 104.679 L 346.000 114.398 334.133 114.399 C 327.607 114.400,322.387 114.094,322.533 113.720 C 322.680 113.347,325.320 108.667,328.400 103.321 L 334.000 93.602 345.867 93.601 C 352.393 93.600,357.613 93.906,357.467 94.280 M391.600 103.321 C 394.680 108.667,397.320 113.347,397.467 113.720 C 397.613 114.094,392.393 114.400,385.867 114.399 L 374.000 114.398 368.400 104.679 C 365.320 99.333,362.680 94.653,362.533 94.280 C 362.387 93.906,367.607 93.600,374.133 93.601 L 386.000 93.602 391.600 103.321 M45.933 104.941 C 48.977 110.274,51.467 115.057,51.467 115.569 C 51.467 116.641,40.603 135.945,40.000 135.945 C 39.397 135.945,28.533 116.641,28.533 115.569 C 28.533 114.498,39.396 95.244,40.000 95.244 C 40.220 95.244,42.890 99.608,45.933 104.941 M125.741 104.622 C 128.678 109.780,131.198 114.427,131.341 114.949 C 131.599 115.894,120.760 135.971,120.000 135.954 C 119.399 135.941,108.533 116.642,108.533 115.588 C 108.533 114.519,119.411 95.206,120.000 95.229 C 120.220 95.237,122.803 99.464,125.741 104.622 M205.741 104.622 C 208.678 109.780,211.198 114.427,211.341 114.949 C 211.599 115.892,200.763 135.966,200.000 135.959 C 199.390 135.954,188.533 116.696,188.533 115.619 C 188.533 114.529,199.400 95.206,200.000 95.229 C 200.220 95.237,202.803 99.464,205.741 104.622 M285.735 104.633 C 288.670 109.792,291.190 114.436,291.335 114.955 C 291.598 115.891,280.765 135.966,280.000 135.959 C 279.383 135.954,268.533 116.690,268.533 115.600 C 268.533 114.504,279.387 95.241,280.000 95.250 C 280.220 95.252,282.801 99.475,285.735 104.633 M365.741 104.622 C 368.678 109.780,371.198 114.427,371.341 114.949 C 371.599 115.892,360.763 135.966,360.000 135.959 C 359.383 135.954,348.533 116.690,348.533 115.600 C 348.533 114.508,359.385 95.244,360.000 95.244 C 360.220 95.244,362.803 99.464,365.741 104.622 M31.649 126.544 C 34.702 131.903,37.320 136.583,37.467 136.944 C 37.613 137.305,32.393 137.596,25.867 137.591 L 14.000 137.582 8.400 127.858 C 5.320 122.510,2.680 117.834,2.533 117.467 C 2.387 117.100,7.629 116.800,14.183 116.800 L 26.099 116.800 31.649 126.544 M77.467 117.467 C 77.320 117.834,74.680 122.510,71.600 127.858 L 66.000 137.582 54.200 137.591 C 47.710 137.596,42.400 137.400,42.400 137.155 C 42.400 136.910,45.003 132.230,48.184 126.755 L 53.969 116.800 65.851 116.800 C 72.386 116.800,77.613 117.100,77.467 117.467 M111.649 126.544 C 114.702 131.903,117.320 136.583,117.467 136.944 C 117.613 137.305,112.393 137.596,105.867 137.591 L 94.000 137.582 88.400 127.858 C 85.320 122.510,82.680 117.834,82.533 117.467 C 82.387 117.100,87.629 116.800,94.183 116.800 L 106.099 116.800 111.649 126.544 M157.467 117.467 C 157.320 117.834,154.680 122.510,151.600 127.858 L 146.000 137.582 134.200 137.591 C 127.710 137.596,122.400 137.400,122.400 137.155 C 122.400 136.910,125.003 132.230,128.184 126.755 L 133.969 116.800 145.851 116.800 C 152.386 116.800,157.613 117.100,157.467 117.467 M191.649 126.544 C 194.702 131.903,197.320 136.583,197.467 136.944 C 197.613 137.305,192.393 137.597,185.867 137.593 L 174.000 137.586 168.400 127.812 C 165.320 122.436,162.680 117.759,162.533 117.419 C 162.387 117.078,167.629 116.800,174.183 116.800 L 186.099 116.800 191.649 126.544 M237.467 117.467 C 237.320 117.834,234.680 122.510,231.600 127.858 L 226.000 137.582 214.200 137.591 C 207.710 137.596,202.400 137.420,202.400 137.200 C 202.400 136.980,205.005 132.300,208.190 126.800 L 213.979 116.800 225.856 116.800 C 232.389 116.800,237.613 117.100,237.467 117.467 M271.810 126.800 C 274.995 132.300,277.600 136.980,277.600 137.200 C 277.600 137.420,272.290 137.596,265.800 137.591 L 254.000 137.582 248.400 127.858 C 245.320 122.510,242.680 117.834,242.533 117.467 C 242.387 117.100,247.611 116.800,254.144 116.800 L 266.021 116.800 271.810 126.800 M317.467 117.467 C 317.320 117.834,314.680 122.510,311.600 127.858 L 306.000 137.582 294.200 137.591 C 287.710 137.596,282.400 137.420,282.400 137.200 C 282.400 136.980,285.005 132.300,288.190 126.800 L 293.979 116.800 305.856 116.800 C 312.389 116.800,317.613 117.100,317.467 117.467 M351.649 126.544 C 354.702 131.903,357.320 136.583,357.467 136.944 C 357.613 137.305,352.393 137.597,345.867 137.593 L 334.000 137.586 328.400 127.812 C 325.320 122.436,322.680 117.759,322.533 117.419 C 322.387 117.078,327.629 116.800,334.183 116.800 L 346.099 116.800 351.649 126.544 M397.467 117.467 C 397.320 117.834,394.680 122.510,391.600 127.858 L 386.000 137.582 374.200 137.591 C 367.710 137.596,362.400 137.400,362.400 137.155 C 362.400 136.910,365.003 132.230,368.184 126.755 L 373.969 116.800 385.851 116.800 C 392.386 116.800,397.613 117.100,397.467 117.467 M86.193 128.531 L 91.986 138.634 86.333 148.517 C 83.224 153.953,80.377 158.400,80.007 158.400 C 79.240 158.400,68.536 140.056,68.535 138.738 C 68.533 137.709,79.424 118.410,80.000 118.421 C 80.220 118.425,83.007 122.975,86.193 128.531 M166.186 128.520 L 171.973 138.612 166.186 148.885 C 163.004 154.535,160.220 159.158,160.000 159.158 C 159.780 159.158,156.996 154.535,153.814 148.885 L 148.027 138.612 153.814 128.520 C 156.996 122.969,159.780 118.428,160.000 118.428 C 160.220 118.428,163.004 122.969,166.186 128.520 M246.193 128.531 L 251.986 138.635 247.847 145.917 C 245.570 149.923,242.841 154.594,241.782 156.297 L 239.857 159.394 233.939 149.008 L 228.021 138.622 233.811 128.525 C 236.995 122.972,239.780 118.428,240.000 118.428 C 240.220 118.428,243.007 122.975,246.193 128.531 M325.933 128.145 C 328.977 133.497,331.467 138.269,331.467 138.749 C 331.467 139.597,322.197 156.171,320.577 158.221 C 319.981 158.974,318.232 156.543,313.896 148.932 L 308.021 138.622 313.811 128.525 C 316.995 122.972,319.780 118.425,320.000 118.421 C 320.220 118.417,322.890 122.793,325.933 128.145 M35.167 144.600 C 33.744 147.130,31.100 151.806,29.290 154.992 L 26.000 160.783 14.200 160.792 C 7.710 160.796,2.400 160.619,2.400 160.399 C 2.400 160.178,4.991 155.498,8.158 149.999 L 13.917 140.000 25.835 140.000 L 37.753 140.000 35.167 144.600 M71.816 149.955 C 74.997 155.430,77.600 160.110,77.600 160.355 C 77.600 160.600,72.290 160.796,65.800 160.792 L 54.000 160.783 50.710 154.992 C 48.900 151.806,46.256 147.130,44.833 144.600 L 42.247 140.000 54.139 140.000 L 66.031 140.000 71.816 149.955 M114.444 145.800 C 112.640 148.990,110.003 153.666,108.582 156.191 L 106.000 160.781 94.200 160.791 C 87.710 160.796,82.400 160.599,82.400 160.353 C 82.400 160.107,84.989 155.427,88.153 149.953 L 93.907 140.000 105.814 140.000 L 117.722 140.000 114.444 145.800 M151.816 149.955 C 154.997 155.430,157.600 160.110,157.600 160.355 C 157.600 160.600,152.290 160.796,145.800 160.792 L 134.000 160.783 130.710 154.992 C 128.900 151.806,126.256 147.130,124.833 144.600 L 122.247 140.000 134.139 140.000 L 146.031 140.000 151.816 149.955 M194.444 145.800 C 192.640 148.990,190.003 153.666,188.582 156.191 L 186.000 160.781 174.200 160.791 C 167.710 160.796,162.400 160.599,162.400 160.353 C 162.400 160.107,164.989 155.427,168.153 149.953 L 173.907 140.000 185.814 140.000 L 197.722 140.000 194.444 145.800 M231.816 149.955 C 234.997 155.430,237.600 160.110,237.600 160.355 C 237.600 160.600,232.290 160.796,225.800 160.792 L 214.000 160.783 210.710 154.992 C 208.900 151.806,206.256 147.130,204.833 144.600 L 202.247 140.000 214.139 140.000 L 226.031 140.000 231.816 149.955 M274.444 145.800 C 272.640 148.990,270.003 153.666,268.582 156.191 L 266.000 160.781 254.200 160.791 C 247.710 160.796,242.400 160.599,242.400 160.353 C 242.400 160.107,244.989 155.427,248.153 149.953 L 253.907 140.000 265.814 140.000 L 277.722 140.000 274.444 145.800 M311.816 149.955 C 314.997 155.430,317.600 160.110,317.600 160.355 C 317.600 160.600,312.290 160.796,305.800 160.792 L 294.000 160.783 290.710 154.992 C 288.900 151.806,286.256 147.130,284.833 144.600 L 282.247 140.000 294.139 140.000 L 306.031 140.000 311.816 149.955 M355.167 144.600 C 353.744 147.130,351.100 151.806,349.290 154.992 L 346.000 160.783 334.200 160.792 C 327.710 160.796,322.400 160.599,322.400 160.353 C 322.400 160.107,324.989 155.427,328.153 149.953 L 333.907 140.000 345.830 140.000 L 357.753 140.000 355.167 144.600 M391.816 149.955 C 394.997 155.430,397.600 160.110,397.600 160.355 C 397.600 160.600,392.290 160.797,385.800 160.793 L 374.000 160.786 368.400 151.012 C 365.320 145.636,362.680 140.959,362.533 140.619 C 362.387 140.278,367.614 140.000,374.149 140.000 L 386.031 140.000 391.816 149.955 M46.207 151.677 L 52.013 161.740 46.297 171.670 C 43.152 177.132,40.313 181.600,39.988 181.600 C 39.662 181.600,36.824 177.139,33.682 171.687 L 27.967 161.773 33.784 151.693 C 36.983 146.149,39.780 141.613,40.000 141.613 C 40.220 141.613,43.013 146.142,46.207 151.677 M126.203 151.692 L 132.006 161.753 126.293 171.677 C 123.151 177.134,120.313 181.600,119.988 181.600 C 119.662 181.600,116.826 177.142,113.685 171.693 L 107.975 161.787 113.787 151.708 C 116.984 146.165,119.780 141.630,120.000 141.630 C 120.220 141.630,123.011 146.158,126.203 151.692 M206.207 151.677 L 212.013 161.740 206.297 171.670 C 203.152 177.132,200.313 181.600,199.988 181.600 C 199.662 181.600,196.826 177.142,193.685 171.693 L 187.975 161.787 193.787 151.708 C 196.984 146.165,199.780 141.626,200.000 141.621 C 200.220 141.617,203.013 146.142,206.207 151.677 M286.207 151.677 L 292.013 161.740 286.297 171.670 C 283.152 177.132,280.313 181.600,279.988 181.600 C 279.662 181.600,276.826 177.142,273.685 171.693 L 267.975 161.787 273.787 151.708 C 276.984 146.165,279.780 141.626,280.000 141.621 C 280.220 141.617,283.013 146.142,286.207 151.677 M366.207 151.677 L 372.013 161.740 366.297 171.670 C 363.152 177.132,360.313 181.600,359.988 181.600 C 359.662 181.600,356.826 177.142,353.685 171.693 L 347.975 161.787 353.787 151.708 C 356.984 146.165,359.780 141.626,360.000 141.621 C 360.220 141.617,363.013 146.142,366.207 151.677 M31.847 173.153 C 35.011 178.627,37.600 183.317,37.600 183.575 C 37.600 183.832,32.320 183.943,25.866 183.821 L 14.132 183.600 11.208 178.800 C 9.599 176.160,6.928 171.570,5.273 168.600 L 2.262 163.200 14.178 163.200 L 26.093 163.200 31.847 173.153 M74.727 168.600 C 73.072 171.570,70.401 176.160,68.792 178.800 L 65.868 183.600 54.134 183.821 C 47.680 183.943,42.400 183.851,42.400 183.617 C 42.400 183.383,44.963 178.694,48.097 173.196 L 53.793 163.200 65.765 163.200 L 77.738 163.200 74.727 168.600 M111.847 173.153 C 115.011 178.627,117.600 183.317,117.600 183.575 C 117.600 183.832,112.320 183.943,105.866 183.821 L 94.132 183.600 91.208 178.800 C 89.599 176.160,86.928 171.570,85.273 168.600 L 82.262 163.200 94.178 163.200 L 106.093 163.200 111.847 173.153 M156.049 166.200 C 155.178 167.850,152.551 172.440,150.211 176.400 L 145.956 183.600 134.178 183.821 C 127.700 183.943,122.400 183.851,122.400 183.617 C 122.400 183.383,124.963 178.694,128.097 173.196 L 133.793 163.200 145.713 163.200 L 157.633 163.200 156.049 166.200 M191.847 173.153 C 195.011 178.627,197.600 183.317,197.600 183.575 C 197.600 183.832,192.320 183.943,185.866 183.821 L 174.132 183.600 171.208 178.800 C 169.599 176.160,166.928 171.570,165.273 168.600 L 162.262 163.200 174.178 163.200 L 186.093 163.200 191.847 173.153 M236.049 166.200 C 235.178 167.850,232.551 172.440,230.211 176.400 L 225.956 183.600 214.178 183.821 C 207.700 183.943,202.400 183.851,202.400 183.617 C 202.400 183.383,204.963 178.694,208.097 173.196 L 213.793 163.200 225.713 163.200 L 237.633 163.200 236.049 166.200 M271.847 173.153 C 275.011 178.627,277.600 183.317,277.600 183.575 C 277.600 183.832,272.320 183.943,265.866 183.821 L 254.132 183.600 251.208 178.800 C 249.599 176.160,246.928 171.570,245.273 168.600 L 242.262 163.200 254.178 163.200 L 266.093 163.200 271.847 173.153 M316.049 166.200 C 315.178 167.850,312.551 172.440,310.211 176.400 L 305.956 183.600 294.178 183.821 C 287.700 183.943,282.400 183.851,282.400 183.617 C 282.400 183.383,284.963 178.694,288.097 173.196 L 293.793 163.200 305.713 163.200 L 317.633 163.200 316.049 166.200 M351.847 173.153 C 355.011 178.627,357.600 183.317,357.600 183.575 C 357.600 183.832,352.320 183.943,345.866 183.821 L 334.132 183.600 331.208 178.800 C 329.599 176.160,326.928 171.570,325.273 168.600 L 322.262 163.200 334.178 163.200 L 346.093 163.200 351.847 173.153 M396.049 166.200 C 395.178 167.850,392.551 172.440,390.211 176.400 L 385.956 183.600 374.178 183.821 C 367.700 183.943,362.400 183.851,362.400 183.617 C 362.400 183.383,364.963 178.694,368.097 173.196 L 373.793 163.200 385.713 163.200 L 397.633 163.200 396.049 166.200 M86.184 174.838 L 91.969 184.863 86.288 194.832 C 83.163 200.314,80.334 204.800,80.000 204.800 C 79.666 204.800,76.841 200.321,73.721 194.847 L 68.049 184.894 73.793 174.847 C 76.952 169.321,79.731 164.803,79.969 164.806 C 80.206 164.810,83.003 169.324,86.184 174.838 M166.184 174.838 L 171.969 184.863 166.288 194.832 C 163.163 200.314,160.334 204.800,160.000 204.800 C 159.666 204.800,156.841 200.321,153.721 194.847 L 148.049 184.894 153.793 174.847 C 156.952 169.321,159.731 164.803,159.969 164.806 C 160.206 164.810,163.003 169.324,166.184 174.838 M246.207 174.847 L 251.951 184.894 246.279 194.847 C 243.159 200.321,240.334 204.800,240.000 204.800 C 239.666 204.800,236.837 200.314,233.712 194.832 L 228.031 184.863 233.816 174.838 C 236.997 169.324,239.794 164.810,240.031 164.806 C 240.269 164.803,243.048 169.321,246.207 174.847 M326.207 174.847 L 331.951 184.894 326.279 194.847 C 323.159 200.321,320.334 204.800,320.000 204.800 C 319.666 204.800,316.837 200.314,313.712 194.832 L 308.031 184.863 313.816 174.838 C 316.997 169.324,319.794 164.810,320.031 164.806 C 320.269 164.803,323.048 169.321,326.207 174.847 M35.105 191.000 C 33.668 193.530,31.015 198.120,29.211 201.200 L 25.930 206.800 14.165 207.021 C 7.694 207.143,2.400 207.001,2.400 206.706 C 2.400 206.411,4.964 201.722,8.098 196.285 L 13.796 186.400 25.757 186.400 L 37.717 186.400 35.105 191.000 M71.902 196.285 C 75.036 201.722,77.600 206.411,77.600 206.706 C 77.600 207.001,72.300 207.143,65.822 207.021 L 54.044 206.800 49.789 199.600 C 47.449 195.640,44.822 191.050,43.951 189.400 L 42.367 186.400 54.286 186.400 L 66.204 186.400 71.902 196.285 M115.105 191.000 C 113.668 193.530,111.015 198.120,109.211 201.200 L 105.930 206.800 94.165 207.021 C 87.694 207.143,82.400 207.001,82.400 206.706 C 82.400 206.411,84.964 201.722,88.098 196.285 L 93.796 186.400 105.757 186.400 L 117.717 186.400 115.105 191.000 M151.902 196.285 C 155.036 201.722,157.600 206.411,157.600 206.706 C 157.600 207.001,152.300 207.143,145.822 207.021 L 134.044 206.800 129.789 199.600 C 127.449 195.640,124.822 191.050,123.951 189.400 L 122.367 186.400 134.286 186.400 L 146.204 186.400 151.902 196.285 M195.105 191.000 C 193.668 193.530,191.015 198.120,189.211 201.200 L 185.930 206.800 174.165 207.021 C 167.694 207.143,162.400 207.001,162.400 206.706 C 162.400 206.411,164.964 201.722,168.098 196.285 L 173.796 186.400 185.757 186.400 L 197.717 186.400 195.105 191.000 M231.902 196.285 C 235.036 201.722,237.600 206.411,237.600 206.706 C 237.600 207.001,232.300 207.143,225.822 207.021 L 214.044 206.800 209.789 199.600 C 207.449 195.640,204.822 191.050,203.951 189.400 L 202.367 186.400 214.286 186.400 L 226.204 186.400 231.902 196.285 M275.105 191.000 C 273.668 193.530,271.015 198.120,269.211 201.200 L 265.930 206.800 254.165 207.021 C 247.694 207.143,242.400 207.001,242.400 206.706 C 242.400 206.411,244.964 201.722,248.098 196.285 L 253.796 186.400 265.757 186.400 L 277.717 186.400 275.105 191.000 M311.902 196.285 C 315.036 201.722,317.600 206.411,317.600 206.706 C 317.600 207.001,312.300 207.143,305.822 207.021 L 294.044 206.800 289.789 199.600 C 287.449 195.640,284.822 191.050,283.951 189.400 L 282.367 186.400 294.286 186.400 L 306.204 186.400 311.902 196.285 M355.105 191.000 C 353.668 193.530,351.015 198.120,349.211 201.200 L 345.930 206.800 334.165 207.021 C 327.694 207.143,322.400 207.001,322.400 206.706 C 322.400 206.411,324.964 201.722,328.098 196.285 L 333.796 186.400 345.757 186.400 L 357.717 186.400 355.105 191.000 M391.902 196.285 C 395.036 201.722,397.600 206.411,397.600 206.706 C 397.600 207.001,392.300 207.143,385.822 207.021 L 374.044 206.800 369.789 199.600 C 367.449 195.640,364.822 191.050,363.951 189.400 L 362.367 186.400 374.286 186.400 L 386.204 186.400 391.902 196.285 M46.224 198.023 L 52.027 208.047 46.260 218.023 C 43.089 223.510,40.271 228.000,40.000 228.000 C 39.729 228.000,36.906 223.500,33.727 218.001 L 27.947 208.001 33.758 198.001 C 36.954 192.500,39.761 188.000,39.995 188.000 C 40.229 188.000,43.032 192.510,46.224 198.023 M126.224 198.023 L 132.027 208.047 126.260 218.023 C 123.089 223.510,120.271 228.000,120.000 228.000 C 119.729 228.000,116.906 223.500,113.727 218.001 L 107.947 208.001 113.758 198.001 C 116.954 192.500,119.761 188.000,119.995 188.000 C 120.229 188.000,123.032 192.510,126.224 198.023 M206.224 198.023 L 212.027 208.047 206.260 218.023 C 203.089 223.510,200.271 228.000,200.000 228.000 C 199.729 228.000,196.906 223.500,193.727 218.001 L 187.947 208.001 193.758 198.001 C 196.954 192.500,199.761 188.000,199.995 188.000 C 200.229 188.000,203.032 192.510,206.224 198.023 M286.224 198.023 L 292.027 208.047 286.260 218.023 C 283.089 223.510,280.271 228.000,280.000 228.000 C 279.729 228.000,276.906 223.500,273.727 218.001 L 267.947 208.001 273.758 198.001 C 276.954 192.500,279.761 188.000,279.995 188.000 C 280.229 188.000,283.032 192.510,286.224 198.023 M366.224 198.023 L 372.027 208.047 366.260 218.023 C 363.089 223.510,360.271 228.000,360.000 228.000 C 359.729 228.000,356.906 223.500,353.727 218.001 L 347.947 208.001 353.758 198.001 C 356.954 192.500,359.761 188.000,359.995 188.000 C 360.229 188.000,363.032 192.510,366.224 198.023 M25.722 209.800 C 26.666 210.569,32.391 220.011,37.363 229.000 C 37.545 229.330,32.317 229.600,25.745 229.600 L 13.796 229.600 8.098 219.715 C 4.964 214.278,2.400 209.598,2.400 209.315 C 2.400 208.293,24.435 208.752,25.722 209.800 M105.722 209.800 C 106.666 210.569,112.391 220.011,117.363 229.000 C 117.545 229.330,112.317 229.600,105.745 229.600 L 93.796 229.600 88.098 219.715 C 84.964 214.278,82.400 209.598,82.400 209.315 C 82.400 208.293,104.435 208.752,105.722 209.800 M185.722 209.800 C 186.666 210.569,192.391 220.011,197.363 229.000 C 197.545 229.330,192.317 229.600,185.745 229.600 L 173.796 229.600 168.098 219.715 C 164.964 214.278,162.400 209.598,162.400 209.315 C 162.400 208.293,184.435 208.752,185.722 209.800 M265.722 209.800 C 266.666 210.569,272.391 220.011,277.363 229.000 C 277.545 229.330,272.300 229.600,265.707 229.600 L 253.720 229.600 248.060 219.705 C 244.947 214.262,242.400 209.582,242.400 209.305 C 242.400 208.290,264.443 208.758,265.722 209.800 M345.722 209.800 C 346.666 210.569,352.391 220.011,357.363 229.000 C 357.545 229.330,352.300 229.600,345.707 229.600 L 333.720 229.600 328.060 219.705 C 324.947 214.262,322.400 209.582,322.400 209.305 C 322.400 208.290,344.443 208.758,345.722 209.800 M77.351 210.200 C 77.162 210.530,74.591 215.030,71.637 220.200 L 66.266 229.600 54.286 229.600 C 47.697 229.600,42.460 229.330,42.649 229.000 C 42.838 228.670,45.409 224.170,48.363 219.000 L 53.734 209.600 65.714 209.600 C 72.303 209.600,77.540 209.870,77.351 210.200 M157.351 210.200 C 157.162 210.530,154.591 215.030,151.637 220.200 L 146.266 229.600 134.286 229.600 C 127.697 229.600,122.460 229.330,122.649 229.000 C 122.838 228.670,125.409 224.170,128.363 219.000 L 133.734 209.600 145.714 209.600 C 152.303 209.600,157.540 209.870,157.351 210.200 M235.781 213.000 C 234.697 214.870,232.095 219.370,229.997 223.000 L 226.184 229.600 214.245 229.600 C 207.678 229.600,202.460 229.330,202.649 229.000 C 202.838 228.670,205.409 224.170,208.363 219.000 L 213.734 209.600 225.743 209.600 L 237.752 209.600 235.781 213.000 M315.781 213.000 C 314.697 214.870,312.095 219.370,309.997 223.000 L 306.184 229.600 294.216 229.600 L 282.248 229.600 284.219 226.200 C 285.303 224.330,287.905 219.830,290.003 216.200 L 293.816 209.600 305.784 209.600 L 317.752 209.600 315.781 213.000 M395.781 213.000 C 394.697 214.870,392.095 219.370,389.997 223.000 L 386.184 229.600 374.245 229.600 C 367.678 229.600,362.460 229.330,362.649 229.000 C 362.838 228.670,365.409 224.170,368.363 219.000 L 373.734 209.600 385.743 209.600 L 397.752 209.600 395.781 213.000 " stroke="none" fill="#dedede" fill-rule="evenodd"></path></g></svg>